# xmcd CD database file
#
# Track frame offsets:
#	182
#	17720
#	40422
#	71282
#	104915
#	128237
#	143027
#	160842
#	180662
#	203705
#
# Disc length: 3068 seconds
#
# Revision: 0
# Processed by: cddbd v1.5PL3 Copyright (c) Steve Scherf et al.
# Submitted via: CDex 1.51
#
DISCID=8b0bfa0a
DTITLE=Roscoe Chenier - Roscoe Chenier
DYEAR=1994
DGENRE=Blues
TTITLE0=Come on Home
TTITLE1=You Don't Understand
TTITLE2=Time is Hard
TTITLE3=Just Because
TTITLE4=Home Wrecker
TTITLE5=Louisiana Shuffle
TTITLE6=Playing the Blues
TTITLE7=Find Me a New Love
TTITLE8=She Blows My Mind
TTITLE9=Losing the Only One You Love
EXTD=YEAR: 1994
EXTT0=
EXTT1=
EXTT2=
EXTT3=
EXTT4=
EXTT5=
EXTT6=
EXTT7=
EXTT8=
EXTT9=
PLAYORDER=
